<?xml version="1.0" encoding="utf-8"?>
<!-- Generator: Adobe Illustrator 27.8.0, SVG Export Plug-In . SVG Version: 6.00 Build 0)  -->
<svg version="1.1" id="Ebene_1" xmlns="http://www.w3.org/2000/svg" xmlns:xlink="http://www.w3.org/1999/xlink" x="0px" y="0px"
	 viewBox="0 0 377.6 87.2" style="enable-background:new 0 0 377.6 87.2;" xml:space="preserve">
<style type="text/css">
	.st0{display:none;}
	.st1{display:inline;fill:#575756;}
	.st2{font-family:'CenturyGothic';}
	.st3{font-size:80.5px;}
	.st4{font-size:20.12px;}
	.st5{display:inline;fill:#0281C3;}
	.st6{enable-background:new    ;}
	.st7{fill:#575756;}
	.st8{fill:#0281C3;}
	.st9{fill:#FFFFFF;}
</style>
<g id="Original" class="st0">
	<text transform="matrix(1 0 0 1 -3.6667 59.8167)" class="st1 st2 st3">C   MAND</text>
	<text transform="matrix(1 0 0 1 -0.2867 83.3767)" class="st1 st2 st4">Content Management and Distribution</text>
	<path class="st5" d="M108.8,6.6l13.9,24.1l-13.9,24.1H81L67,30.7L81,6.6H108.8 M111.7,1.6H78.1L61.3,30.7l16.8,29.1h33.6l16.8-29.1
		L111.7,1.6L111.7,1.6z"/>
</g>
<g id="Pfade">
	<g class="st6">
		<path class="st7" d="M57.2,12.7l-4.6,3.5c-2.5-3.3-5.5-5.8-9.1-7.4C40.1,7.1,36.2,6.2,32,6.2c-4.6,0-8.9,1.1-12.8,3.3
			s-7,5.2-9.1,8.9C7.9,22.1,6.9,26.3,6.9,31c0,7,2.4,12.9,7.3,17.6c4.8,4.7,10.9,7.1,18.3,7.1c8.1,0,14.9-3.2,20.3-9.5l4.6,3.5
			c-2.9,3.7-6.5,6.5-10.8,8.5s-9.1,3-14.4,3c-10.1,0-18.1-3.4-23.9-10.1c-4.9-5.7-7.4-12.6-7.4-20.6c0-8.5,3-15.6,8.9-21.4
			C15.5,3.4,23,0.5,31.9,0.5c5.4,0,10.3,1.1,14.6,3.2C50.9,5.9,54.4,8.9,57.2,12.7z"/>
		<path class="st7" d="M133,59.8L141.3,2h0.9l23.5,47.4L189,2h0.9l8.3,57.8h-5.7l-5.7-41.4l-20.4,41.4H165l-20.7-41.7l-5.7,41.7H133
			z"/>
		<path class="st7" d="M233.3,2l27,57.8H254l-9.1-19H220l-9,19h-6.4L231.9,2H233.3z M232.5,14.3l-9.9,20.9h19.8L232.5,14.3z"/>
		<path class="st7" d="M269.2,59.8V2h1.3L309,46.3V2h5.7v57.8h-1.3L275.2,16v43.8H269.2z"/>
		<path class="st7" d="M328.8,59.8V2h12c8.6,0,14.9,0.7,18.8,2.1c5.6,2,10,5.4,13.1,10.2c3.2,4.8,4.7,10.6,4.7,17.3
			c0,5.8-1.3,10.9-3.8,15.3s-5.8,7.7-9.7,9.7c-4,2.1-9.6,3.1-16.8,3.1h-18.3V59.8z M334.3,54.4h6.7c8,0,13.5-0.5,16.6-1.5
			c4.3-1.4,7.8-4,10.3-7.6c2.5-3.7,3.7-8.2,3.7-13.5c0-5.6-1.3-10.3-4-14.3s-6.5-6.7-11.3-8.1c-3.6-1.1-9.6-1.6-17.9-1.6h-4.1
			L334.3,54.4L334.3,54.4z"/>
	</g>
	<g class="st6">
		<path class="st7" d="M14.9,71.6l-1.1,0.9c-0.6-0.8-1.4-1.4-2.3-1.9C10.6,70.2,9.7,70,8.6,70c-1.2,0-2.2,0.3-3.2,0.8
			c-1,0.6-1.7,1.3-2.3,2.2c-0.5,0.9-0.8,2-0.8,3.1c0,1.8,0.6,3.2,1.8,4.4s2.7,1.8,4.6,1.8c2,0,3.7-0.8,5.1-2.4l1.1,0.9
			c-0.7,0.9-1.6,1.6-2.7,2.1s-2.3,0.8-3.6,0.8c-2.5,0-4.5-0.8-6-2.5c-1.2-1.4-1.8-3.1-1.8-5.1c0-2.1,0.7-3.9,2.2-5.3
			s3.3-2.2,5.6-2.2c1.3,0,2.6,0.3,3.7,0.8C13.3,69.9,14.2,70.6,14.9,71.6z"/>
		<path class="st7" d="M22.7,72.4c1.6,0,3,0.6,4.1,1.8c1,1.1,1.5,2.4,1.5,3.9s-0.5,2.8-1.6,3.9c-1,1.1-2.4,1.7-4,1.7s-3-0.6-4-1.7
			s-1.6-2.4-1.6-3.9s0.5-2.8,1.5-3.9C19.6,73,21,72.4,22.7,72.4z M22.7,73.8c-1.1,0-2.1,0.4-2.9,1.3c-0.8,0.8-1.2,1.9-1.2,3.1
			c0,0.8,0.2,1.5,0.6,2.2s0.9,1.2,1.5,1.5c0.6,0.4,1.3,0.5,2.1,0.5c0.8,0,1.5-0.2,2.1-0.5c0.6-0.4,1.1-0.9,1.5-1.5
			c0.4-0.7,0.6-1.4,0.6-2.2c0-1.2-0.4-2.2-1.2-3.1C24.8,74.2,23.8,73.8,22.7,73.8z"/>
		<path class="st7" d="M30.8,72.7h1.4v1.9c0.5-0.7,1.2-1.3,1.8-1.6c0.7-0.4,1.4-0.5,2.2-0.5s1.5,0.2,2.1,0.6s1.1,1,1.4,1.6
			c0.3,0.7,0.4,1.8,0.4,3.2v5.5h-1.4v-5.1c0-1.2-0.1-2.1-0.2-2.5c-0.2-0.7-0.5-1.2-0.9-1.6c-0.5-0.4-1-0.5-1.8-0.5s-1.6,0.3-2.2,0.8
			c-0.7,0.5-1.1,1.2-1.3,2c-0.1,0.5-0.2,1.5-0.2,2.9v3.9h-1.4V72.7H30.8z"/>
		<path class="st7" d="M44.2,68.7h1.4v4h2.2v1.2h-2.2v9.5h-1.4v-9.5h-1.9v-1.2h1.9V68.7z"/>
		<path class="st7" d="M58.9,79.8l1.2,0.6c-0.4,0.7-0.8,1.3-1.3,1.8s-1.1,0.8-1.7,1c-0.6,0.2-1.3,0.4-2.1,0.4
			c-1.7,0-3.1-0.6-4.1-1.7s-1.5-2.4-1.5-3.9c0-1.4,0.4-2.6,1.2-3.6c1.1-1.3,2.5-2,4.2-2c1.8,0,3.3,0.7,4.4,2.1
			c0.8,1,1.2,2.2,1.2,3.7h-9.6c0,1.2,0.4,2.3,1.2,3.1c0.8,0.8,1.7,1.2,2.8,1.2c0.5,0,1.1-0.1,1.6-0.3c0.5-0.2,1-0.4,1.3-0.8
			C58.1,81,58.4,80.5,58.9,79.8z M58.9,77c-0.2-0.7-0.5-1.3-0.8-1.8c-0.4-0.4-0.8-0.8-1.4-1.1s-1.2-0.4-1.8-0.4c-1,0-2,0.3-2.7,1
			c-0.6,0.5-1,1.2-1.2,2.2h7.9V77z"/>
		<path class="st7" d="M62.9,72.7h1.4v1.9c0.5-0.7,1.2-1.3,1.8-1.6c0.7-0.4,1.4-0.5,2.2-0.5c0.8,0,1.5,0.2,2.1,0.6s1.1,1,1.4,1.6
			c0.3,0.7,0.4,1.8,0.4,3.2v5.5h-1.4v-5.1c0-1.2-0.1-2.1-0.2-2.5c-0.2-0.7-0.5-1.2-0.9-1.6c-0.5-0.4-1-0.5-1.8-0.5s-1.6,0.3-2.2,0.8
			c-0.7,0.5-1.1,1.2-1.3,2c-0.1,0.5-0.2,1.5-0.2,2.9v3.9h-1.4L62.9,72.7L62.9,72.7z"/>
		<path class="st7" d="M76.4,68.7h1.4v4H80v1.2h-2.2v9.5h-1.4v-9.5h-1.9v-1.2h1.9V68.7z"/>
		<path class="st7" d="M87.2,83.4l2.1-14.5h0.2l5.9,11.9l5.8-11.9h0.2l2.1,14.5h-1.4L100.6,73l-5.1,10.3h-0.4L90,73l-1.4,10.4H87.2z
			"/>
		<path class="st7" d="M116.7,72.7v10.7h-1.4v-1.8c-0.6,0.7-1.2,1.2-1.9,1.6c-0.7,0.4-1.5,0.5-2.4,0.5c-1.5,0-2.8-0.5-3.9-1.6
			s-1.6-2.4-1.6-4c0-1.5,0.5-2.9,1.6-3.9c1.1-1.1,2.4-1.6,3.9-1.6c0.9,0,1.7,0.2,2.4,0.6c0.7,0.4,1.3,0.9,1.9,1.7v-2h1.4V72.7z
			 M111.2,73.7c-0.8,0-1.5,0.2-2.1,0.6s-1.2,0.9-1.5,1.6c-0.4,0.7-0.6,1.4-0.6,2.2c0,0.8,0.2,1.5,0.6,2.2s0.9,1.2,1.6,1.6
			s1.3,0.6,2.1,0.6c0.8,0,1.5-0.2,2.1-0.6c0.7-0.4,1.2-0.9,1.6-1.5s0.5-1.4,0.5-2.2c0-1.2-0.4-2.3-1.2-3.1
			C113.4,74.2,112.4,73.7,111.2,73.7z"/>
		<path class="st7" d="M119.8,72.7h1.4v1.9c0.5-0.7,1.2-1.3,1.8-1.6c0.7-0.4,1.4-0.5,2.2-0.5c0.8,0,1.5,0.2,2.1,0.6s1.1,1,1.4,1.6
			c0.3,0.7,0.4,1.8,0.4,3.2v5.5h-1.4v-5.1c0-1.2-0.1-2.1-0.2-2.5c-0.2-0.7-0.5-1.2-0.9-1.6c-0.5-0.4-1-0.5-1.8-0.5s-1.6,0.3-2.2,0.8
			c-0.7,0.5-1.1,1.2-1.3,2c-0.1,0.5-0.2,1.5-0.2,2.9v3.9h-1.4V72.7H119.8z"/>
		<path class="st7" d="M142.8,72.7v10.7h-1.4v-1.8c-0.6,0.7-1.2,1.2-1.9,1.6s-1.5,0.5-2.4,0.5c-1.5,0-2.8-0.5-3.9-1.6
			c-1.1-1.1-1.6-2.4-1.6-4c0-1.5,0.5-2.9,1.6-3.9c1.1-1.1,2.4-1.6,3.9-1.6c0.9,0,1.7,0.2,2.4,0.6s1.3,0.9,1.9,1.7v-2h1.4V72.7z
			 M137.3,73.7c-0.8,0-1.5,0.2-2.1,0.6s-1.2,0.9-1.5,1.6c-0.4,0.7-0.6,1.4-0.6,2.2c0,0.8,0.2,1.5,0.6,2.2c0.4,0.7,0.9,1.2,1.6,1.6
			s1.3,0.6,2.1,0.6s1.5-0.2,2.1-0.6c0.7-0.4,1.2-0.9,1.6-1.5c0.4-0.6,0.5-1.4,0.5-2.2c0-1.2-0.4-2.3-1.2-3.1
			C139.5,74.2,138.4,73.7,137.3,73.7z"/>
		<path class="st7" d="M155.1,72.7h1.4v8.5c0,1.5-0.1,2.6-0.4,3.3c-0.4,1-1,1.7-1.9,2.3c-0.9,0.5-2,0.8-3.2,0.8
			c-0.9,0-1.7-0.1-2.5-0.4c-0.7-0.3-1.3-0.6-1.8-1s-0.9-1.1-1.3-1.9h1.5c0.4,0.7,0.9,1.2,1.6,1.6c0.6,0.3,1.4,0.5,2.4,0.5
			c0.9,0,1.7-0.2,2.4-0.5c0.6-0.3,1.1-0.8,1.4-1.3c0.3-0.5,0.4-1.4,0.4-2.6v-0.5c-0.5,0.7-1.2,1.2-1.9,1.5s-1.5,0.5-2.4,0.5
			c-1,0-1.9-0.2-2.8-0.7c-0.9-0.5-1.5-1.1-2-2c-0.5-0.8-0.7-1.7-0.7-2.7s0.2-1.9,0.7-2.8s1.2-1.5,2-2c0.9-0.5,1.8-0.7,2.7-0.7
			c0.8,0,1.5,0.2,2.2,0.5s1.4,0.9,2,1.6v-2H155.1z M151,73.7c-0.8,0-1.5,0.2-2.2,0.6s-1.2,0.9-1.6,1.6c-0.4,0.7-0.6,1.4-0.6,2.2
			c0,1.2,0.4,2.1,1.2,2.9s1.8,1.1,3.1,1.1s2.3-0.4,3.1-1.1s1.2-1.8,1.2-3c0-0.8-0.2-1.5-0.5-2.2c-0.4-0.6-0.9-1.1-1.5-1.5
			C152.5,73.9,151.8,73.7,151,73.7z"/>
		<path class="st7" d="M168.4,79.8l1.2,0.6c-0.4,0.7-0.8,1.3-1.3,1.8s-1.1,0.8-1.7,1c-0.6,0.2-1.3,0.4-2.1,0.4
			c-1.7,0-3.1-0.6-4.1-1.7s-1.5-2.4-1.5-3.9c0-1.4,0.4-2.6,1.2-3.6c1.1-1.3,2.5-2,4.2-2c1.8,0,3.3,0.7,4.4,2.1
			c0.8,1,1.2,2.2,1.2,3.7h-9.6c0,1.2,0.4,2.3,1.2,3.1c0.8,0.8,1.7,1.2,2.8,1.2c0.5,0,1.1-0.1,1.6-0.3c0.5-0.2,1-0.4,1.3-0.8
			C167.6,81,168,80.5,168.4,79.8z M168.4,77c-0.2-0.7-0.5-1.3-0.8-1.8c-0.4-0.4-0.8-0.8-1.4-1.1s-1.2-0.4-1.8-0.4c-1,0-2,0.3-2.7,1
			c-0.6,0.5-1,1.2-1.2,2.2h7.9V77z"/>
		<path class="st7" d="M172.5,72.7h1.4v1.8c0.5-0.7,1-1.2,1.5-1.5c0.7-0.4,1.4-0.6,2.2-0.6c0.5,0,1,0.1,1.5,0.3
			c0.5,0.2,0.8,0.5,1.1,0.8s0.6,0.8,0.8,1.4c0.5-0.8,1-1.5,1.7-1.9s1.4-0.7,2.2-0.7c0.7,0,1.4,0.2,2,0.6s1,0.9,1.3,1.6
			s0.4,1.7,0.4,3v5.8H187v-5.8c0-1.1-0.1-1.9-0.2-2.4s-0.4-0.8-0.8-1c-0.4-0.3-0.9-0.4-1.4-0.4c-0.7,0-1.3,0.2-1.8,0.6
			c-0.6,0.4-1,0.9-1.2,1.6c-0.3,0.7-0.4,1.7-0.4,3.3v4.2h-1.4v-5.5c0-1.3-0.1-2.2-0.2-2.6c-0.2-0.5-0.4-0.8-0.8-1.1
			s-0.9-0.4-1.4-0.4c-0.6,0-1.2,0.2-1.8,0.6s-1,0.9-1.2,1.5c-0.3,0.6-0.4,1.6-0.4,3v4.5h-1.4V72.7H172.5z"/>
		<path class="st7" d="M200.3,79.8l1.2,0.6c-0.4,0.7-0.8,1.3-1.3,1.8s-1.1,0.8-1.7,1c-0.6,0.2-1.3,0.4-2.1,0.4
			c-1.7,0-3.1-0.6-4.1-1.7s-1.5-2.4-1.5-3.9c0-1.4,0.4-2.6,1.2-3.6c1.1-1.3,2.5-2,4.2-2c1.8,0,3.3,0.7,4.4,2.1
			c0.8,1,1.2,2.2,1.2,3.7h-9.6c0,1.2,0.4,2.3,1.2,3.1c0.8,0.8,1.7,1.2,2.8,1.2c0.5,0,1.1-0.1,1.6-0.3c0.5-0.2,1-0.4,1.3-0.8
			C199.5,81,199.9,80.5,200.3,79.8z M200.3,77c-0.2-0.7-0.5-1.3-0.8-1.8s-0.8-0.8-1.4-1.1s-1.2-0.4-1.8-0.4c-1,0-2,0.3-2.7,1
			c-0.6,0.5-1,1.2-1.2,2.2h7.9V77z"/>
		<path class="st7" d="M204.4,72.7h1.4v1.9c0.5-0.7,1.2-1.3,1.8-1.6c0.7-0.4,1.4-0.5,2.2-0.5s1.5,0.2,2.1,0.6s1.1,1,1.4,1.6
			c0.3,0.7,0.4,1.8,0.4,3.2v5.5h-1.4v-5.1c0-1.2-0.1-2.1-0.2-2.5c-0.2-0.7-0.5-1.2-0.9-1.6c-0.5-0.4-1-0.5-1.8-0.5s-1.6,0.3-2.2,0.8
			c-0.7,0.5-1.1,1.2-1.3,2c-0.1,0.5-0.2,1.5-0.2,2.9v3.9h-1.4L204.4,72.7L204.4,72.7z"/>
		<path class="st7" d="M217.9,68.7h1.4v4h2.2v1.2h-2.2v9.5h-1.4v-9.5H216v-1.2h1.9V68.7z"/>
		<path class="st7" d="M239.7,72.7v10.7h-1.4v-1.8c-0.6,0.7-1.2,1.2-1.9,1.6s-1.5,0.5-2.4,0.5c-1.5,0-2.8-0.5-3.9-1.6
			c-1.1-1.1-1.6-2.4-1.6-4c0-1.5,0.5-2.9,1.6-3.9c1.1-1.1,2.4-1.6,3.9-1.6c0.9,0,1.7,0.2,2.4,0.6s1.3,0.9,1.9,1.7v-2h1.4V72.7z
			 M234.2,73.7c-0.8,0-1.5,0.2-2.1,0.6s-1.2,0.9-1.5,1.6S230,77.3,230,78c0,0.8,0.2,1.5,0.6,2.2c0.4,0.7,0.9,1.2,1.6,1.6
			c0.7,0.4,1.3,0.6,2.1,0.6s1.5-0.2,2.1-0.6c0.7-0.4,1.2-0.9,1.6-1.5c0.4-0.6,0.5-1.4,0.5-2.2c0-1.2-0.4-2.3-1.2-3.1
			C236.4,74.2,235.4,73.7,234.2,73.7z"/>
		<path class="st7" d="M242.8,72.7h1.4v1.9c0.5-0.7,1.2-1.3,1.8-1.6c0.7-0.4,1.4-0.5,2.2-0.5s1.5,0.2,2.1,0.6s1.1,1,1.4,1.6
			s0.4,1.8,0.4,3.2v5.5h-1.4v-5.1c0-1.2-0.1-2.1-0.2-2.5c-0.2-0.7-0.5-1.2-0.9-1.6c-0.5-0.4-1-0.5-1.8-0.5s-1.6,0.3-2.2,0.8
			c-0.7,0.5-1.1,1.2-1.3,2c-0.1,0.5-0.2,1.5-0.2,2.9v3.9h-1.4L242.8,72.7L242.8,72.7z"/>
		<path class="st7" d="M265.8,68.6v14.8h-1.4v-1.8c-0.6,0.7-1.2,1.2-1.9,1.6c-0.7,0.4-1.5,0.5-2.4,0.5c-1.5,0-2.8-0.5-3.9-1.6
			s-1.6-2.4-1.6-4c0-1.5,0.5-2.9,1.6-3.9c1.1-1.1,2.4-1.6,3.9-1.6c0.9,0,1.7,0.2,2.4,0.6c0.7,0.4,1.3,0.9,1.9,1.7v-6.1h1.4V68.6z
			 M260.3,73.7c-0.8,0-1.5,0.2-2.1,0.6s-1.2,0.9-1.5,1.6S256,77.3,256,78c0,0.8,0.2,1.5,0.6,2.2s0.9,1.2,1.6,1.6s1.3,0.6,2.1,0.6
			c0.8,0,1.5-0.2,2.1-0.6c0.7-0.4,1.2-0.9,1.6-1.5s0.5-1.4,0.5-2.2c0-1.2-0.4-2.3-1.2-3.1C262.4,74.2,261.4,73.7,260.3,73.7z"/>
		<path class="st7" d="M274.7,83.4V68.9h3c2.2,0,3.7,0.2,4.7,0.5c1.4,0.5,2.5,1.3,3.3,2.6c0.8,1.2,1.2,2.7,1.2,4.3
			c0,1.4-0.3,2.7-0.9,3.8c-0.6,1.1-1.4,1.9-2.4,2.4s-2.4,0.8-4.2,0.8L274.7,83.4L274.7,83.4z M276,82h1.7c2,0,3.4-0.1,4.2-0.4
			c1.1-0.4,1.9-1,2.6-1.9c0.6-0.9,0.9-2,0.9-3.4s-0.3-2.6-1-3.6s-1.6-1.7-2.8-2c-0.9-0.3-2.4-0.4-4.5-0.4h-1V82H276z"/>
		<path class="st7" d="M289.9,68.3c0.3,0,0.6,0.1,0.8,0.3s0.3,0.5,0.3,0.8s-0.1,0.6-0.3,0.8s-0.5,0.3-0.8,0.3s-0.6-0.1-0.8-0.3
			s-0.3-0.5-0.3-0.8s0.1-0.6,0.3-0.8S289.6,68.3,289.9,68.3z M289.2,72.7h1.4v10.7h-1.4V72.7z"/>
		<path class="st7" d="M298.8,73.9l-0.9,0.9c-0.7-0.7-1.5-1.1-2.2-1.1c-0.4,0-0.8,0.1-1.1,0.4c-0.3,0.3-0.5,0.6-0.5,1
			c0,0.3,0.1,0.7,0.4,1s0.8,0.7,1.7,1.1c1,0.5,1.7,1,2.1,1.5s0.5,1.1,0.5,1.7c0,0.9-0.3,1.6-0.9,2.2s-1.4,0.9-2.3,0.9
			c-0.6,0-1.2-0.1-1.8-0.4s-1-0.6-1.4-1.1l0.9-1c0.7,0.8,1.4,1.2,2.2,1.2c0.6,0,1-0.2,1.4-0.5c0.4-0.4,0.6-0.8,0.6-1.2
			c0-0.4-0.1-0.7-0.4-1.1c-0.3-0.3-0.8-0.7-1.7-1.1c-1-0.5-1.6-1-2-1.5c-0.3-0.5-0.5-1-0.5-1.7c0-0.8,0.3-1.5,0.8-2
			c0.6-0.5,1.3-0.8,2.1-0.8C296.8,72.4,297.8,72.9,298.8,73.9z"/>
		<path class="st7" d="M302.4,68.7h1.4v4h2.2v1.2h-2.2v9.5h-1.4v-9.5h-1.9v-1.2h1.9V68.7z"/>
		<path class="st7" d="M307.5,72.7h1.4v1.6c0.4-0.6,0.9-1.1,1.3-1.4s0.9-0.5,1.5-0.5c0.4,0,0.8,0.1,1.2,0.4l-0.7,1.2
			c-0.3-0.1-0.5-0.2-0.7-0.2c-0.5,0-0.9,0.2-1.3,0.6s-0.8,1-1,1.8c-0.2,0.6-0.3,1.8-0.3,3.7v3.6h-1.4V72.7z"/>
		<path class="st7" d="M314.6,68.3c0.3,0,0.6,0.1,0.8,0.3s0.3,0.5,0.3,0.8s-0.1,0.6-0.3,0.8s-0.5,0.3-0.8,0.3s-0.6-0.1-0.8-0.3
			s-0.3-0.5-0.3-0.8s0.1-0.6,0.3-0.8S314.3,68.3,314.6,68.3z M313.9,72.7h1.4v10.7h-1.4V72.7z"/>
		<path class="st7" d="M318.2,83.4V68.6h1.4v6c0.6-0.7,1.2-1.2,1.9-1.6c0.7-0.3,1.5-0.5,2.3-0.5c1.5,0,2.8,0.5,3.9,1.6
			s1.6,2.4,1.6,4c0,1.5-0.5,2.9-1.6,4s-2.4,1.6-3.9,1.6c-0.9,0-1.7-0.2-2.4-0.6c-0.7-0.4-1.3-0.9-1.9-1.7v2H318.2z M323.7,82.3
			c0.8,0,1.5-0.2,2.1-0.6s1.2-0.9,1.5-1.6c0.4-0.7,0.6-1.4,0.6-2.2s-0.2-1.5-0.6-2.2s-0.9-1.2-1.6-1.6s-1.3-0.6-2.1-0.6
			c-0.8,0-1.5,0.2-2.1,0.6c-0.7,0.4-1.2,0.9-1.6,1.5s-0.5,1.4-0.5,2.2c0,1.2,0.4,2.3,1.2,3.1S322.5,82.3,323.7,82.3z"/>
		<path class="st7" d="M331.7,72.7h1.4v5c0,1.2,0.1,2.1,0.2,2.5c0.2,0.7,0.6,1.2,1.1,1.6c0.6,0.4,1.2,0.6,2,0.6s1.4-0.2,2-0.6
			c0.5-0.4,0.9-0.9,1.1-1.5c0.1-0.4,0.2-1.3,0.2-2.6v-5h1.4v5.2c0,1.5-0.2,2.6-0.5,3.3c-0.3,0.7-0.9,1.3-1.6,1.8
			c-0.7,0.4-1.6,0.6-2.6,0.6s-1.9-0.2-2.6-0.6s-1.2-1-1.6-1.8c-0.3-0.8-0.5-1.9-0.5-3.4V72.7z"/>
		<path class="st7" d="M345.3,68.7h1.4v4h2.2v1.2h-2.2v9.5h-1.4v-9.5h-1.9v-1.2h1.9V68.7z"/>
		<path class="st7" d="M351.4,68.3c0.3,0,0.6,0.1,0.8,0.3s0.3,0.5,0.3,0.8s-0.1,0.6-0.3,0.8s-0.5,0.3-0.8,0.3s-0.6-0.1-0.8-0.3
			s-0.3-0.5-0.3-0.8s0.1-0.6,0.3-0.8S351.1,68.3,351.4,68.3z M350.7,72.7h1.4v10.7h-1.4V72.7z"/>
		<path class="st7" d="M360,72.4c1.6,0,3,0.6,4.1,1.8c1,1.1,1.5,2.4,1.5,3.9s-0.5,2.8-1.6,3.9c-1,1.1-2.4,1.7-4,1.7s-3-0.6-4-1.7
			s-1.6-2.4-1.6-3.9s0.5-2.8,1.5-3.9C357,73,358.4,72.4,360,72.4z M360,73.8c-1.1,0-2.1,0.4-2.9,1.3c-0.8,0.8-1.2,1.9-1.2,3.1
			c0,0.8,0.2,1.5,0.6,2.2s0.9,1.2,1.5,1.5c0.6,0.4,1.3,0.5,2.1,0.5s1.5-0.2,2.1-0.5c0.6-0.4,1.1-0.9,1.5-1.5
			c0.4-0.7,0.6-1.4,0.6-2.2c0-1.2-0.4-2.2-1.2-3.1C362.1,74.2,361.1,73.8,360,73.8z"/>
		<path class="st7" d="M368.1,72.7h1.4v1.9c0.5-0.7,1.2-1.3,1.8-1.6c0.7-0.4,1.4-0.5,2.2-0.5c0.8,0,1.5,0.2,2.1,0.6s1.1,1,1.4,1.6
			c0.3,0.7,0.4,1.8,0.4,3.2v5.5H376v-5.1c0-1.2-0.1-2.1-0.2-2.5c-0.2-0.7-0.5-1.2-0.9-1.6c-0.5-0.4-1-0.5-1.8-0.5s-1.6,0.3-2.2,0.8
			c-0.7,0.5-1.1,1.2-1.3,2c-0.1,0.5-0.2,1.5-0.2,2.9v3.9H368V72.7H368.1z"/>
	</g>
	<path class="st8" d="M108.8,6.6l13.9,24.1l-13.9,24.1H81L67,30.7L81,6.6H108.8 M111.7,1.6H78.1L61.3,30.7l16.8,29.1h33.6l16.8-29.1
		L111.7,1.6L111.7,1.6z"/>
</g>
<g id="Pfade_Darkmode">
	<g class="st6">
		<path class="st9" d="M57.2,12.7l-4.6,3.5c-2.5-3.3-5.5-5.8-9.1-7.4C40.1,7.1,36.2,6.2,32,6.2c-4.6,0-8.9,1.1-12.8,3.3
			s-7,5.2-9.1,8.9C7.9,22.1,6.9,26.3,6.9,31c0,7,2.4,12.9,7.3,17.6c4.8,4.7,10.9,7.1,18.3,7.1c8.1,0,14.9-3.2,20.3-9.5l4.6,3.5
			c-2.9,3.7-6.5,6.5-10.8,8.5s-9.1,3-14.4,3c-10.1,0-18.1-3.4-23.9-10.1c-4.9-5.7-7.4-12.6-7.4-20.6c0-8.5,3-15.6,8.9-21.4
			C15.5,3.4,23,0.5,31.9,0.5c5.4,0,10.3,1.1,14.6,3.2C50.9,5.9,54.4,8.9,57.2,12.7z"/>
		<path class="st9" d="M133,59.8L141.3,2h0.9l23.5,47.4L189,2h0.9l8.3,57.8h-5.7l-5.7-41.4l-20.4,41.4H165l-20.7-41.7l-5.7,41.7H133
			z"/>
		<path class="st9" d="M233.3,2l27,57.8H254l-9.1-19H220l-9,19h-6.4L231.9,2H233.3z M232.5,14.3l-9.9,20.9h19.8L232.5,14.3z"/>
		<path class="st9" d="M269.2,59.8V2h1.3L309,46.3V2h5.7v57.8h-1.3L275.2,16v43.8H269.2z"/>
		<path class="st9" d="M328.8,59.8V2h12c8.6,0,14.9,0.7,18.8,2.1c5.6,2,10,5.4,13.1,10.2c3.2,4.8,4.7,10.6,4.7,17.3
			c0,5.8-1.3,10.9-3.8,15.3s-5.8,7.7-9.7,9.7c-4,2.1-9.6,3.1-16.8,3.1h-18.3V59.8z M334.3,54.4h6.7c8,0,13.5-0.5,16.6-1.5
			c4.3-1.4,7.8-4,10.3-7.6c2.5-3.7,3.7-8.2,3.7-13.5c0-5.6-1.3-10.3-4-14.3s-6.5-6.7-11.3-8.1c-3.6-1.1-9.6-1.6-17.9-1.6h-4.1
			L334.3,54.4L334.3,54.4z"/>
	</g>
	<g class="st6">
		<path class="st9" d="M14.9,71.6l-1.1,0.9c-0.6-0.8-1.4-1.4-2.3-1.9C10.6,70.2,9.7,70,8.6,70c-1.2,0-2.2,0.3-3.2,0.8
			c-1,0.6-1.7,1.3-2.3,2.2c-0.5,0.9-0.8,2-0.8,3.1c0,1.8,0.6,3.2,1.8,4.4s2.7,1.8,4.6,1.8c2,0,3.7-0.8,5.1-2.4l1.1,0.9
			c-0.7,0.9-1.6,1.6-2.7,2.1s-2.3,0.8-3.6,0.8c-2.5,0-4.5-0.8-6-2.5c-1.2-1.4-1.8-3.1-1.8-5.1c0-2.1,0.7-3.9,2.2-5.3
			s3.3-2.2,5.6-2.2c1.3,0,2.6,0.3,3.7,0.8C13.3,69.9,14.2,70.6,14.9,71.6z"/>
		<path class="st9" d="M22.7,72.4c1.6,0,3,0.6,4.1,1.8c1,1.1,1.5,2.4,1.5,3.9s-0.5,2.8-1.6,3.9c-1,1.1-2.4,1.7-4,1.7s-3-0.6-4-1.7
			s-1.6-2.4-1.6-3.9s0.5-2.8,1.5-3.9C19.6,73,21,72.4,22.7,72.4z M22.7,73.8c-1.1,0-2.1,0.4-2.9,1.3c-0.8,0.8-1.2,1.9-1.2,3.1
			c0,0.8,0.2,1.5,0.6,2.2s0.9,1.2,1.5,1.5c0.6,0.4,1.3,0.5,2.1,0.5c0.8,0,1.5-0.2,2.1-0.5c0.6-0.4,1.1-0.9,1.5-1.5
			c0.4-0.7,0.6-1.4,0.6-2.2c0-1.2-0.4-2.2-1.2-3.1C24.8,74.2,23.8,73.8,22.7,73.8z"/>
		<path class="st9" d="M30.8,72.7h1.4v1.9c0.5-0.7,1.2-1.3,1.8-1.6c0.7-0.4,1.4-0.5,2.2-0.5s1.5,0.2,2.1,0.6s1.1,1,1.4,1.6
			c0.3,0.7,0.4,1.8,0.4,3.2v5.5h-1.4v-5.1c0-1.2-0.1-2.1-0.2-2.5c-0.2-0.7-0.5-1.2-0.9-1.6c-0.5-0.4-1-0.5-1.8-0.5s-1.6,0.3-2.2,0.8
			c-0.7,0.5-1.1,1.2-1.3,2c-0.1,0.5-0.2,1.5-0.2,2.9v3.9h-1.4V72.7H30.8z"/>
		<path class="st9" d="M44.2,68.7h1.4v4h2.2v1.2h-2.2v9.5h-1.4v-9.5h-1.9v-1.2h1.9V68.7z"/>
		<path class="st9" d="M58.9,79.8l1.2,0.6c-0.4,0.7-0.8,1.3-1.3,1.8s-1.1,0.8-1.7,1c-0.6,0.2-1.3,0.4-2.1,0.4
			c-1.7,0-3.1-0.6-4.1-1.7s-1.5-2.4-1.5-3.9c0-1.4,0.4-2.6,1.2-3.6c1.1-1.3,2.5-2,4.2-2c1.8,0,3.3,0.7,4.4,2.1
			c0.8,1,1.2,2.2,1.2,3.7h-9.6c0,1.2,0.4,2.3,1.2,3.1c0.8,0.8,1.7,1.2,2.8,1.2c0.5,0,1.1-0.1,1.6-0.3c0.5-0.2,1-0.4,1.3-0.8
			C58.1,81,58.4,80.5,58.9,79.8z M58.9,77c-0.2-0.7-0.5-1.3-0.8-1.8c-0.4-0.4-0.8-0.8-1.4-1.1s-1.2-0.4-1.8-0.4c-1,0-2,0.3-2.7,1
			c-0.6,0.5-1,1.2-1.2,2.2h7.9V77z"/>
		<path class="st9" d="M62.9,72.7h1.4v1.9c0.5-0.7,1.2-1.3,1.8-1.6c0.7-0.4,1.4-0.5,2.2-0.5c0.8,0,1.5,0.2,2.1,0.6s1.1,1,1.4,1.6
			c0.3,0.7,0.4,1.8,0.4,3.2v5.5h-1.4v-5.1c0-1.2-0.1-2.1-0.2-2.5c-0.2-0.7-0.5-1.2-0.9-1.6c-0.5-0.4-1-0.5-1.8-0.5s-1.6,0.3-2.2,0.8
			c-0.7,0.5-1.1,1.2-1.3,2c-0.1,0.5-0.2,1.5-0.2,2.9v3.9h-1.4L62.9,72.7L62.9,72.7z"/>
		<path class="st9" d="M76.4,68.7h1.4v4H80v1.2h-2.2v9.5h-1.4v-9.5h-1.9v-1.2h1.9V68.7z"/>
		<path class="st9" d="M87.2,83.4l2.1-14.5h0.2l5.9,11.9l5.8-11.9h0.2l2.1,14.5h-1.4L100.6,73l-5.1,10.3h-0.4L90,73l-1.4,10.4H87.2z
			"/>
		<path class="st9" d="M116.7,72.7v10.7h-1.4v-1.8c-0.6,0.7-1.2,1.2-1.9,1.6c-0.7,0.4-1.5,0.5-2.4,0.5c-1.5,0-2.8-0.5-3.9-1.6
			s-1.6-2.4-1.6-4c0-1.5,0.5-2.9,1.6-3.9c1.1-1.1,2.4-1.6,3.9-1.6c0.9,0,1.7,0.2,2.4,0.6c0.7,0.4,1.3,0.9,1.9,1.7v-2h1.4V72.7z
			 M111.2,73.7c-0.8,0-1.5,0.2-2.1,0.6s-1.2,0.9-1.5,1.6c-0.4,0.7-0.6,1.4-0.6,2.2c0,0.8,0.2,1.5,0.6,2.2s0.9,1.2,1.6,1.6
			s1.3,0.6,2.1,0.6c0.8,0,1.5-0.2,2.1-0.6c0.7-0.4,1.2-0.9,1.6-1.5s0.5-1.4,0.5-2.2c0-1.2-0.4-2.3-1.2-3.1
			C113.4,74.2,112.4,73.7,111.2,73.7z"/>
		<path class="st9" d="M119.8,72.7h1.4v1.9c0.5-0.7,1.2-1.3,1.8-1.6c0.7-0.4,1.4-0.5,2.2-0.5c0.8,0,1.5,0.2,2.1,0.6s1.1,1,1.4,1.6
			c0.3,0.7,0.4,1.8,0.4,3.2v5.5h-1.4v-5.1c0-1.2-0.1-2.1-0.2-2.5c-0.2-0.7-0.5-1.2-0.9-1.6c-0.5-0.4-1-0.5-1.8-0.5s-1.6,0.3-2.2,0.8
			c-0.7,0.5-1.1,1.2-1.3,2c-0.1,0.5-0.2,1.5-0.2,2.9v3.9h-1.4V72.7H119.8z"/>
		<path class="st9" d="M142.8,72.7v10.7h-1.4v-1.8c-0.6,0.7-1.2,1.2-1.9,1.6s-1.5,0.5-2.4,0.5c-1.5,0-2.8-0.5-3.9-1.6
			c-1.1-1.1-1.6-2.4-1.6-4c0-1.5,0.5-2.9,1.6-3.9c1.1-1.1,2.4-1.6,3.9-1.6c0.9,0,1.7,0.2,2.4,0.6s1.3,0.9,1.9,1.7v-2h1.4V72.7z
			 M137.3,73.7c-0.8,0-1.5,0.2-2.1,0.6s-1.2,0.9-1.5,1.6c-0.4,0.7-0.6,1.4-0.6,2.2c0,0.8,0.2,1.5,0.6,2.2c0.4,0.7,0.9,1.2,1.6,1.6
			s1.3,0.6,2.1,0.6s1.5-0.2,2.1-0.6c0.7-0.4,1.2-0.9,1.6-1.5c0.4-0.6,0.5-1.4,0.5-2.2c0-1.2-0.4-2.3-1.2-3.1
			C139.5,74.2,138.4,73.7,137.3,73.7z"/>
		<path class="st9" d="M155.1,72.7h1.4v8.5c0,1.5-0.1,2.6-0.4,3.3c-0.4,1-1,1.7-1.9,2.3c-0.9,0.5-2,0.8-3.2,0.8
			c-0.9,0-1.7-0.1-2.5-0.4c-0.7-0.3-1.3-0.6-1.8-1s-0.9-1.1-1.3-1.9h1.5c0.4,0.7,0.9,1.2,1.6,1.6c0.6,0.3,1.4,0.5,2.4,0.5
			c0.9,0,1.7-0.2,2.4-0.5c0.6-0.3,1.1-0.8,1.4-1.3c0.3-0.5,0.4-1.4,0.4-2.6v-0.5c-0.5,0.7-1.2,1.2-1.9,1.5s-1.5,0.5-2.4,0.5
			c-1,0-1.9-0.2-2.8-0.7c-0.9-0.5-1.5-1.1-2-2c-0.5-0.8-0.7-1.7-0.7-2.7s0.2-1.9,0.7-2.8s1.2-1.5,2-2c0.9-0.5,1.8-0.7,2.7-0.7
			c0.8,0,1.5,0.2,2.2,0.5s1.4,0.9,2,1.6v-2H155.1z M151,73.7c-0.8,0-1.5,0.2-2.2,0.6s-1.2,0.9-1.6,1.6c-0.4,0.7-0.6,1.4-0.6,2.2
			c0,1.2,0.4,2.1,1.2,2.9s1.8,1.1,3.1,1.1s2.3-0.4,3.1-1.1s1.2-1.8,1.2-3c0-0.8-0.2-1.5-0.5-2.2c-0.4-0.6-0.9-1.1-1.5-1.5
			C152.5,73.9,151.8,73.7,151,73.7z"/>
		<path class="st9" d="M168.4,79.8l1.2,0.6c-0.4,0.7-0.8,1.3-1.3,1.8s-1.1,0.8-1.7,1c-0.6,0.2-1.3,0.4-2.1,0.4
			c-1.7,0-3.1-0.6-4.1-1.7s-1.5-2.4-1.5-3.9c0-1.4,0.4-2.6,1.2-3.6c1.1-1.3,2.5-2,4.2-2c1.8,0,3.3,0.7,4.4,2.1
			c0.8,1,1.2,2.2,1.2,3.7h-9.6c0,1.2,0.4,2.3,1.2,3.1c0.8,0.8,1.7,1.2,2.8,1.2c0.5,0,1.1-0.1,1.6-0.3c0.5-0.2,1-0.4,1.3-0.8
			C167.6,81,168,80.5,168.4,79.8z M168.4,77c-0.2-0.7-0.5-1.3-0.8-1.8c-0.4-0.4-0.8-0.8-1.4-1.1s-1.2-0.4-1.8-0.4c-1,0-2,0.3-2.7,1
			c-0.6,0.5-1,1.2-1.2,2.2h7.9V77z"/>
		<path class="st9" d="M172.5,72.7h1.4v1.8c0.5-0.7,1-1.2,1.5-1.5c0.7-0.4,1.4-0.6,2.2-0.6c0.5,0,1,0.1,1.5,0.3
			c0.5,0.2,0.8,0.5,1.1,0.8s0.6,0.8,0.8,1.4c0.5-0.8,1-1.5,1.7-1.9s1.4-0.7,2.2-0.7c0.7,0,1.4,0.2,2,0.6s1,0.9,1.3,1.6
			s0.4,1.7,0.4,3v5.8H187v-5.8c0-1.1-0.1-1.9-0.2-2.4s-0.4-0.8-0.8-1c-0.4-0.3-0.9-0.4-1.4-0.4c-0.7,0-1.3,0.2-1.8,0.6
			c-0.6,0.4-1,0.9-1.2,1.6c-0.3,0.7-0.4,1.7-0.4,3.3v4.2h-1.4v-5.5c0-1.3-0.1-2.2-0.2-2.6c-0.2-0.5-0.4-0.8-0.8-1.1
			s-0.9-0.4-1.4-0.4c-0.6,0-1.2,0.2-1.8,0.6s-1,0.9-1.2,1.5c-0.3,0.6-0.4,1.6-0.4,3v4.5h-1.4V72.7H172.5z"/>
		<path class="st9" d="M200.3,79.8l1.2,0.6c-0.4,0.7-0.8,1.3-1.3,1.8s-1.1,0.8-1.7,1c-0.6,0.2-1.3,0.4-2.1,0.4
			c-1.7,0-3.1-0.6-4.1-1.7s-1.5-2.4-1.5-3.9c0-1.4,0.4-2.6,1.2-3.6c1.1-1.3,2.5-2,4.2-2c1.8,0,3.3,0.7,4.4,2.1
			c0.8,1,1.2,2.2,1.2,3.7h-9.6c0,1.2,0.4,2.3,1.2,3.1c0.8,0.8,1.7,1.2,2.8,1.2c0.5,0,1.1-0.1,1.6-0.3c0.5-0.2,1-0.4,1.3-0.8
			C199.5,81,199.9,80.5,200.3,79.8z M200.3,77c-0.2-0.7-0.5-1.3-0.8-1.8s-0.8-0.8-1.4-1.1s-1.2-0.4-1.8-0.4c-1,0-2,0.3-2.7,1
			c-0.6,0.5-1,1.2-1.2,2.2h7.9V77z"/>
		<path class="st9" d="M204.4,72.7h1.4v1.9c0.5-0.7,1.2-1.3,1.8-1.6c0.7-0.4,1.4-0.5,2.2-0.5s1.5,0.2,2.1,0.6s1.1,1,1.4,1.6
			c0.3,0.7,0.4,1.8,0.4,3.2v5.5h-1.4v-5.1c0-1.2-0.1-2.1-0.2-2.5c-0.2-0.7-0.5-1.2-0.9-1.6c-0.5-0.4-1-0.5-1.8-0.5s-1.6,0.3-2.2,0.8
			c-0.7,0.5-1.1,1.2-1.3,2c-0.1,0.5-0.2,1.5-0.2,2.9v3.9h-1.4L204.4,72.7L204.4,72.7z"/>
		<path class="st9" d="M217.9,68.7h1.4v4h2.2v1.2h-2.2v9.5h-1.4v-9.5H216v-1.2h1.9V68.7z"/>
		<path class="st9" d="M239.7,72.7v10.7h-1.4v-1.8c-0.6,0.7-1.2,1.2-1.9,1.6s-1.5,0.5-2.4,0.5c-1.5,0-2.8-0.5-3.9-1.6
			c-1.1-1.1-1.6-2.4-1.6-4c0-1.5,0.5-2.9,1.6-3.9c1.1-1.1,2.4-1.6,3.9-1.6c0.9,0,1.7,0.2,2.4,0.6s1.3,0.9,1.9,1.7v-2h1.4V72.7z
			 M234.2,73.7c-0.8,0-1.5,0.2-2.1,0.6s-1.2,0.9-1.5,1.6S230,77.3,230,78c0,0.8,0.2,1.5,0.6,2.2c0.4,0.7,0.9,1.2,1.6,1.6
			c0.7,0.4,1.3,0.6,2.1,0.6s1.5-0.2,2.1-0.6c0.7-0.4,1.2-0.9,1.6-1.5c0.4-0.6,0.5-1.4,0.5-2.2c0-1.2-0.4-2.3-1.2-3.1
			C236.4,74.2,235.4,73.7,234.2,73.7z"/>
		<path class="st9" d="M242.8,72.7h1.4v1.9c0.5-0.7,1.2-1.3,1.8-1.6c0.7-0.4,1.4-0.5,2.2-0.5s1.5,0.2,2.1,0.6s1.1,1,1.4,1.6
			s0.4,1.8,0.4,3.2v5.5h-1.4v-5.1c0-1.2-0.1-2.1-0.2-2.5c-0.2-0.7-0.5-1.2-0.9-1.6c-0.5-0.4-1-0.5-1.8-0.5s-1.6,0.3-2.2,0.8
			c-0.7,0.5-1.1,1.2-1.3,2c-0.1,0.5-0.2,1.5-0.2,2.9v3.9h-1.4L242.8,72.7L242.8,72.7z"/>
		<path class="st9" d="M265.8,68.6v14.8h-1.4v-1.8c-0.6,0.7-1.2,1.2-1.9,1.6c-0.7,0.4-1.5,0.5-2.4,0.5c-1.5,0-2.8-0.5-3.9-1.6
			s-1.6-2.4-1.6-4c0-1.5,0.5-2.9,1.6-3.9c1.1-1.1,2.4-1.6,3.9-1.6c0.9,0,1.7,0.2,2.4,0.6c0.7,0.4,1.3,0.9,1.9,1.7v-6.1h1.4V68.6z
			 M260.3,73.7c-0.8,0-1.5,0.2-2.1,0.6s-1.2,0.9-1.5,1.6S256,77.3,256,78c0,0.8,0.2,1.5,0.6,2.2s0.9,1.2,1.6,1.6s1.3,0.6,2.1,0.6
			c0.8,0,1.5-0.2,2.1-0.6c0.7-0.4,1.2-0.9,1.6-1.5s0.5-1.4,0.5-2.2c0-1.2-0.4-2.3-1.2-3.1C262.4,74.2,261.4,73.7,260.3,73.7z"/>
		<path class="st9" d="M274.7,83.4V68.9h3c2.2,0,3.7,0.2,4.7,0.5c1.4,0.5,2.5,1.3,3.3,2.6c0.8,1.2,1.2,2.7,1.2,4.3
			c0,1.4-0.3,2.7-0.9,3.8c-0.6,1.1-1.4,1.9-2.4,2.4s-2.4,0.8-4.2,0.8L274.7,83.4L274.7,83.4z M276,82h1.7c2,0,3.4-0.1,4.2-0.4
			c1.1-0.4,1.9-1,2.6-1.9c0.6-0.9,0.9-2,0.9-3.4s-0.3-2.6-1-3.6s-1.6-1.7-2.8-2c-0.9-0.3-2.4-0.4-4.5-0.4h-1V82H276z"/>
		<path class="st9" d="M289.9,68.3c0.3,0,0.6,0.1,0.8,0.3s0.3,0.5,0.3,0.8s-0.1,0.6-0.3,0.8s-0.5,0.3-0.8,0.3s-0.6-0.1-0.8-0.3
			s-0.3-0.5-0.3-0.8s0.1-0.6,0.3-0.8S289.6,68.3,289.9,68.3z M289.2,72.7h1.4v10.7h-1.4V72.7z"/>
		<path class="st9" d="M298.8,73.9l-0.9,0.9c-0.7-0.7-1.5-1.1-2.2-1.1c-0.4,0-0.8,0.1-1.1,0.4c-0.3,0.3-0.5,0.6-0.5,1
			c0,0.3,0.1,0.7,0.4,1s0.8,0.7,1.7,1.1c1,0.5,1.7,1,2.1,1.5s0.5,1.1,0.5,1.7c0,0.9-0.3,1.6-0.9,2.2s-1.4,0.9-2.3,0.9
			c-0.6,0-1.2-0.1-1.8-0.4s-1-0.6-1.4-1.1l0.9-1c0.7,0.8,1.4,1.2,2.2,1.2c0.6,0,1-0.2,1.4-0.5c0.4-0.4,0.6-0.8,0.6-1.2
			c0-0.4-0.1-0.7-0.4-1.1c-0.3-0.3-0.8-0.7-1.7-1.1c-1-0.5-1.6-1-2-1.5c-0.3-0.5-0.5-1-0.5-1.7c0-0.8,0.3-1.5,0.8-2
			c0.6-0.5,1.3-0.8,2.1-0.8C296.8,72.4,297.8,72.9,298.8,73.9z"/>
		<path class="st9" d="M302.4,68.7h1.4v4h2.2v1.2h-2.2v9.5h-1.4v-9.5h-1.9v-1.2h1.9V68.7z"/>
		<path class="st9" d="M307.5,72.7h1.4v1.6c0.4-0.6,0.9-1.1,1.3-1.4s0.9-0.5,1.5-0.5c0.4,0,0.8,0.1,1.2,0.4l-0.7,1.2
			c-0.3-0.1-0.5-0.2-0.7-0.2c-0.5,0-0.9,0.2-1.3,0.6s-0.8,1-1,1.8c-0.2,0.6-0.3,1.8-0.3,3.7v3.6h-1.4V72.7z"/>
		<path class="st9" d="M314.6,68.3c0.3,0,0.6,0.1,0.8,0.3s0.3,0.5,0.3,0.8s-0.1,0.6-0.3,0.8s-0.5,0.3-0.8,0.3s-0.6-0.1-0.8-0.3
			s-0.3-0.5-0.3-0.8s0.1-0.6,0.3-0.8S314.3,68.3,314.6,68.3z M313.9,72.7h1.4v10.7h-1.4V72.7z"/>
		<path class="st9" d="M318.2,83.4V68.6h1.4v6c0.6-0.7,1.2-1.2,1.9-1.6c0.7-0.3,1.5-0.5,2.3-0.5c1.5,0,2.8,0.5,3.9,1.6
			s1.6,2.4,1.6,4c0,1.5-0.5,2.9-1.6,4s-2.4,1.6-3.9,1.6c-0.9,0-1.7-0.2-2.4-0.6c-0.7-0.4-1.3-0.9-1.9-1.7v2H318.2z M323.7,82.3
			c0.8,0,1.5-0.2,2.1-0.6s1.2-0.9,1.5-1.6c0.4-0.7,0.6-1.4,0.6-2.2s-0.2-1.5-0.6-2.2s-0.9-1.2-1.6-1.6s-1.3-0.6-2.1-0.6
			c-0.8,0-1.5,0.2-2.1,0.6c-0.7,0.4-1.2,0.9-1.6,1.5s-0.5,1.4-0.5,2.2c0,1.2,0.4,2.3,1.2,3.1S322.5,82.3,323.7,82.3z"/>
		<path class="st9" d="M331.7,72.7h1.4v5c0,1.2,0.1,2.1,0.2,2.5c0.2,0.7,0.6,1.2,1.1,1.6c0.6,0.4,1.2,0.6,2,0.6s1.4-0.2,2-0.6
			c0.5-0.4,0.9-0.9,1.1-1.5c0.1-0.4,0.2-1.3,0.2-2.6v-5h1.4v5.2c0,1.5-0.2,2.6-0.5,3.3c-0.3,0.7-0.9,1.3-1.6,1.8
			c-0.7,0.4-1.6,0.6-2.6,0.6s-1.9-0.2-2.6-0.6s-1.2-1-1.6-1.8c-0.3-0.8-0.5-1.9-0.5-3.4V72.7z"/>
		<path class="st9" d="M345.3,68.7h1.4v4h2.2v1.2h-2.2v9.5h-1.4v-9.5h-1.9v-1.2h1.9V68.7z"/>
		<path class="st9" d="M351.4,68.3c0.3,0,0.6,0.1,0.8,0.3s0.3,0.5,0.3,0.8s-0.1,0.6-0.3,0.8s-0.5,0.3-0.8,0.3s-0.6-0.1-0.8-0.3
			s-0.3-0.5-0.3-0.8s0.1-0.6,0.3-0.8S351.1,68.3,351.4,68.3z M350.7,72.7h1.4v10.7h-1.4V72.7z"/>
		<path class="st9" d="M360,72.4c1.6,0,3,0.6,4.1,1.8c1,1.1,1.5,2.4,1.5,3.9s-0.5,2.8-1.6,3.9c-1,1.1-2.4,1.7-4,1.7s-3-0.6-4-1.7
			s-1.6-2.4-1.6-3.9s0.5-2.8,1.5-3.9C357,73,358.4,72.4,360,72.4z M360,73.8c-1.1,0-2.1,0.4-2.9,1.3c-0.8,0.8-1.2,1.9-1.2,3.1
			c0,0.8,0.2,1.5,0.6,2.2s0.9,1.2,1.5,1.5c0.6,0.4,1.3,0.5,2.1,0.5s1.5-0.2,2.1-0.5c0.6-0.4,1.1-0.9,1.5-1.5
			c0.4-0.7,0.6-1.4,0.6-2.2c0-1.2-0.4-2.2-1.2-3.1C362.1,74.2,361.1,73.8,360,73.8z"/>
		<path class="st9" d="M368.1,72.7h1.4v1.9c0.5-0.7,1.2-1.3,1.8-1.6c0.7-0.4,1.4-0.5,2.2-0.5c0.8,0,1.5,0.2,2.1,0.6s1.1,1,1.4,1.6
			c0.3,0.7,0.4,1.8,0.4,3.2v5.5H376v-5.1c0-1.2-0.1-2.1-0.2-2.5c-0.2-0.7-0.5-1.2-0.9-1.6c-0.5-0.4-1-0.5-1.8-0.5s-1.6,0.3-2.2,0.8
			c-0.7,0.5-1.1,1.2-1.3,2c-0.1,0.5-0.2,1.5-0.2,2.9v3.9H368V72.7H368.1z"/>
	</g>
	<path class="st8" d="M108.8,6.6l13.9,24.1l-13.9,24.1H81L67,30.7L81,6.6H108.8 M111.7,1.6H78.1L61.3,30.7l16.8,29.1h33.6l16.8-29.1
		L111.7,1.6L111.7,1.6z"/>
</g>
</svg>
