<?xml version="1.0" encoding="UTF-8"?>
<svg id="Ebene_1" data-name="Ebene 1" xmlns="http://www.w3.org/2000/svg" viewBox="0 0 385.29 98.88">
  <defs>
    <style>
      .cls-1 {
        fill: #9c97ca;
        stroke-width: 0px;
      }

      .cls-2 {
        font-size: 20.12px;
      }

      .cls-2, .cls-3 {
        fill: #575756;
        font-family: CenturyGothic, 'Century Gothic';
      }

      .cls-3 {
        font-size: 80.5px;
      }
    </style>
  </defs>
  <text class="cls-3" transform="translate(0 69.15)"><tspan x="0" y="0" xml:space="preserve">C   MAND</tspan></text>
  <text class="cls-2" transform="translate(3.38 92.71)"><tspan x="0" y="0">Content Management and Distribution</tspan></text>
  <path class="cls-1" d="m83.04,16.13c.46,0,.92.03,1.38.08,1.25.14,2.19.38,2.89.72.36.18.85.55,1.32.93,1.41,1.13,2.56,2.69,3.5,4.07.75,1.11,1.5,2.22,2.24,3.33l1.04,1.56c.07.1.14.2.22.32l.04.06,4.59,6.4,4.43-6.51.24-.36c.19-.28.38-.55.56-.82.36-.55.72-1.09,1.08-1.64.76-1.16,1.49-2.26,2.24-3.35.91-1.31,1.86-2.34,2.9-3.14.98-.75,2.01-1.18,3.24-1.36,1.12-.16,1.95-.23,2.67-.23.13,0,.27,0,.4,0,2.6.1,4.56.72,6.14,1.94,1.71,1.32,2.72,2.87,3.15,4.9.17.78.23,1.56.18,2.29-.07,1.06-.29,2.18-.67,3.43-.73,2.42-1.95,4.94-3.97,8.18-1.66,2.66-3.55,5.26-5.78,7.94-1.86,2.24-3.91,4.47-6.26,6.84-2.33,2.35-4.79,4.68-7.31,6.92-1.11.98-2.22,1.96-3.33,2.94l-.56-.51c-2.11-1.92-4.28-3.9-6.4-5.86-2.41-2.23-4.78-4.58-7.03-7-2.83-3.04-5.21-5.93-7.27-8.86-1.73-2.45-3.04-4.8-4.02-7.18-.71-1.72-1.18-3.34-1.43-4.93-.19-1.19-.26-2.24-.22-3.22.04-.87.12-1.97.42-2.82.37-1.03,1.08-1.95,2.18-2.79,1.52-1.16,3.33-1.87,5.54-2.17.55-.07,1.11-.11,1.66-.11m0-5.5c-.8,0-1.6.05-2.4.16-3.03.41-5.78,1.45-8.14,3.26-1.87,1.43-3.26,3.19-4.02,5.32-.51,1.43-.67,2.93-.73,4.42-.06,1.45.05,2.9.29,4.33.34,2.11.96,4.15,1.78,6.14,1.2,2.91,2.77,5.65,4.62,8.26,2.34,3.31,4.95,6.44,7.75,9.44,2.34,2.51,4.78,4.94,7.32,7.29,2.91,2.69,5.84,5.34,8.77,8.01.62.56,1.24,1.11,1.87,1.67.05-.04.08-.06.11-.09,2.31-2.03,4.63-4.06,6.93-6.1,2.6-2.31,5.12-4.7,7.56-7.15,2.3-2.32,4.52-4.71,6.59-7.2,2.27-2.73,4.36-5.57,6.22-8.55,1.88-3.02,3.55-6.13,4.57-9.5.46-1.52.78-3.07.89-4.64.09-1.28-.02-2.56-.29-3.83-.7-3.25-2.4-5.96-5.18-8.1-2.68-2.06-5.83-2.93-9.27-3.07-.21,0-.41-.01-.62-.01-1.15,0-2.29.12-3.43.28-2.2.31-4.13,1.14-5.83,2.44-1.63,1.25-2.94,2.74-4.07,4.37-1.16,1.67-2.26,3.39-3.38,5.08-.25.37-.5.74-.77,1.13-.07-.1-.12-.16-.17-.23-1.1-1.64-2.19-3.29-3.3-4.93-1.31-1.92-2.73-3.76-4.61-5.26-.72-.57-1.47-1.15-2.3-1.56-1.46-.73-3.08-1.08-4.73-1.27-.67-.07-1.33-.11-2-.11h0Z"/>
</svg>